HIERARCHY
ROOT Hips
{
  OFFSET 0.0000 96.6554 0.0000
  CHANNELS 6 Xposition Yposition Zposition Zrotation Xrotation Yrotation
  JOINT Spine
  {
    OFFSET 0.0000 13.2344 0.0000
    CHANNELS 3 Zrotation Xrotation Yrotation
    JOINT Spine1
    {
      OFFSET 0.0000 12.9244 0.0000
      CHANNELS 3 Zrotation Xrotation Yrotation
      JOINT Spine2
      {
        OFFSET 0.0000 13.3596 0.0000
        CHANNELS 3 Zrotation Xrotation Yrotation
        JOINT LeftShoulder
        {
          OFFSET 7.2389 10.7865 0.0000
          CHANNELS 3 Zrotation Xrotation Yrotation
          JOINT LeftArm
          {
            OFFSET 0.0000 13.8402 0.0000
            CHANNELS 3 Zrotation Xrotation Yrotation
            JOINT LeftForeArm
            {
              OFFSET -0.0001 26.8373 0.0000
              CHANNELS 3 Zrotation Xrotation Yrotation
              JOINT LeftHand
              {
                OFFSET 0.0000 29.5519 0.0000
                CHANNELS 3 Zrotation Xrotation Yrotation
                JOINT LeftHandIndex1
                {
                  OFFSET -2.6557 8.3719 0.1068
                  CHANNELS 3 Zrotation Xrotation Yrotation
                  JOINT LeftHandIndex2
                  {
                    OFFSET 0.0000 4.7496 0.0000
                    CHANNELS 3 Zrotation Xrotation Yrotation
                    JOINT LeftHandIndex3
                    {
                      OFFSET 0.0000 2.9220 0.0000
                      CHANNELS 3 Zrotation Xrotation Yrotation
                      End Site
                      {
                        OFFSET 0.0000 1.3566 0.0000
                      }
                    }
                  }
                }
                JOINT LeftHandMiddle1
                {
                  OFFSET -0.5651 8.4368 0.1068
                  CHANNELS 3 Zrotation Xrotation Yrotation
                  JOINT LeftHandMiddle2
                  {
                    OFFSET 0.0000 4.8759 0.0000
                    CHANNELS 3 Zrotation Xrotation Yrotation
                    JOINT LeftHandMiddle3
                    {
                      OFFSET 0.0000 3.2160 0.0000
                      CHANNELS 3 Zrotation Xrotation Yrotation
                      End Site
                      {
                        OFFSET 0.0000 1.4991 0.0000
                      }
                    }
                  }
                }
                JOINT LeftHandPinky1
                {
                  OFFSET 3.2526 7.2771 0.1068
                  CHANNELS 3 Zrotation Xrotation Yrotation
                  JOINT LeftHandPinky2
                  {
                    OFFSET 0.0000 3.6852 0.0000
                    CHANNELS 3 Zrotation Xrotation Yrotation
                    JOINT LeftHandPinky3
                    {
                      OFFSET 0.0000 2.3164 0.0000
                      CHANNELS 3 Zrotation Xrotation Yrotation
                      End Site
                      {
                        OFFSET 0.0000 1.1205 0.0000
                      }
                    }
                  }
                }
                JOINT LeftHandRing1
                {
                  OFFSET 1.4936 8.0949 0.1069
                  CHANNELS 3 Zrotation Xrotation Yrotation
                  JOINT LeftHandRing2
                  {
                    OFFSET 0.0000 4.5543 0.0000
                    CHANNELS 3 Zrotation Xrotation Yrotation
                    JOINT LeftHandRing3
                    {
                      OFFSET 0.0000 2.9372 0.0000
                      CHANNELS 3 Zrotation Xrotation Yrotation
                      End Site
                      {
                        OFFSET 0.0000 1.3500 0.0000
                      }
                    }
                  }
                }
                JOINT LeftHandThumb1
                {
                  OFFSET -2.8891 2.1558 0.0984
                  CHANNELS 3 Zrotation Xrotation Yrotation
                  JOINT LeftHandThumb2
                  {
                    OFFSET 0.0000 4.1082 0.0000
                    CHANNELS 3 Zrotation Xrotation Yrotation
                    JOINT LeftHandThumb3
                    {
                      OFFSET 0.0000 3.1181 0.0000
                      CHANNELS 3 Zrotation Xrotation Yrotation
                      End Site
                      {
                        OFFSET 0.0000 1.7295 0.0000
                      }
                    }
                  }
                }
              }
            }
          }
        }
        JOINT Neck
        {
          OFFSET 0.0000 18.7818 0.0000
          CHANNELS 3 Zrotation Xrotation Yrotation
          JOINT Head
          {
            OFFSET 0.0000 11.3439 0.0000
            CHANNELS 3 Zrotation Xrotation Yrotation
            End Site
            {
              OFFSET 0.0000 8.1622 0.0000
            }
          }
        }
        JOINT RightShoulder
        {
          OFFSET -7.2390 10.7865 0.0000
          CHANNELS 3 Zrotation Xrotation Yrotation
          JOINT RightArm
          {
            OFFSET 0.0000 13.8401 0.0000
            CHANNELS 3 Zrotation Xrotation Yrotation
            JOINT RightForeArm
            {
              OFFSET 0.0000 26.8374 0.0000
              CHANNELS 3 Zrotation Xrotation Yrotation
              JOINT RightHand
              {
                OFFSET -0.0001 29.5519 0.0000
                CHANNELS 3 Zrotation Xrotation Yrotation
                JOINT RightHandIndex1
                {
                  OFFSET 2.6557 8.3720 0.1068
                  CHANNELS 3 Zrotation Xrotation Yrotation
                  JOINT RightHandIndex2
                  {
                    OFFSET 0.0000 4.7496 0.0000
                    CHANNELS 3 Zrotation Xrotation Yrotation
                    JOINT RightHandIndex3
                    {
                      OFFSET 0.0000 2.9221 0.0000
                      CHANNELS 3 Zrotation Xrotation Yrotation
                      End Site
                      {
                        OFFSET 0.0000 1.3566 0.0000
                      }
                    }
                  }
                }
                JOINT RightHandMiddle1
                {
                  OFFSET 0.5651 8.4369 0.1068
                  CHANNELS 3 Zrotation Xrotation Yrotation
                  JOINT RightHandMiddle2
                  {
                    OFFSET 0.0000 4.8760 0.0000
                    CHANNELS 3 Zrotation Xrotation Yrotation
                    JOINT RightHandMiddle3
                    {
                      OFFSET 0.0000 3.2161 0.0000
                      CHANNELS 3 Zrotation Xrotation Yrotation
                      End Site
                      {
                        OFFSET 0.0000 1.4991 0.0000
                      }
                    }
                  }
                }
                JOINT RightHandPinky1
                {
                  OFFSET -3.2526 7.2771 0.1068
                  CHANNELS 3 Zrotation Xrotation Yrotation
                  JOINT RightHandPinky2
                  {
                    OFFSET 0.0000 3.6852 0.0000
                    CHANNELS 3 Zrotation Xrotation Yrotation
                    JOINT RightHandPinky3
                    {
                      OFFSET 0.0000 2.3164 0.0000
                      CHANNELS 3 Zrotation Xrotation Yrotation
                      End Site
                      {
                        OFFSET 0.0000 1.1205 0.0000
                      }
                    }
                  }
                }
                JOINT RightHandRing1
                {
                  OFFSET -1.4937 8.0949 0.1068
                  CHANNELS 3 Zrotation Xrotation Yrotation
                  JOINT RightHandRing2
                  {
                    OFFSET 0.0000 4.5543 0.0000
                    CHANNELS 3 Zrotation Xrotation Yrotation
                    JOINT RightHandRing3
                    {
                      OFFSET 0.0000 2.9372 0.0000
                      CHANNELS 3 Zrotation Xrotation Yrotation
                      End Site
                      {
                        OFFSET 0.0000 1.3500 0.0000
                      }
                    }
                  }
                }
                JOINT RightHandThumb1
                {
                  OFFSET 2.8891 2.1558 0.0984
                  CHANNELS 3 Zrotation Xrotation Yrotation
                  JOINT RightHandThumb2
                  {
                    OFFSET 0.0000 4.1081 0.0000
                    CHANNELS 3 Zrotation Xrotation Yrotation
                    JOINT RightHandThumb3
                    {
                      OFFSET 0.0000 3.1181 0.0000
                      CHANNELS 3 Zrotation Xrotation Yrotation
                      End Site
                      {
                        OFFSET 0.0000 1.7295 0.0000
                      }
                    }
                  }
                }
              }
            }
          }
        }
      }
    }
  }
  JOINT LeftUpLeg
  {
    OFFSET 8.3288 0.0000 0.0000
    CHANNELS 3 Zrotation Xrotation Yrotation
    JOINT LeftLeg
    {
      OFFSET 0.0000 44.4203 0.0000
      CHANNELS 3 Zrotation Xrotation Yrotation
      JOINT LeftFoot
      {
        OFFSET 0.0000 44.5232 0.0000
        CHANNELS 3 Zrotation Xrotation Yrotation
        JOINT LeftToe
        {
          OFFSET 0.0000 14.9844 0.0000
          CHANNELS 3 Zrotation Xrotation Yrotation
          End Site
          {
            OFFSET 0.0000 3.5000 0.0000
          }
        }
      }
    }
  }
  JOINT RightUpLeg
  {
    OFFSET -8.3288 0.0000 0.0000
    CHANNELS 3 Zrotation Xrotation Yrotation
    JOINT RightLeg
    {
      OFFSET 0.0000 44.4203 0.0000
      CHANNELS 3 Zrotation Xrotation Yrotation
      JOINT RightFoot
      {
        OFFSET 0.0000 44.5232 0.0000
        CHANNELS 3 Zrotation Xrotation Yrotation
        JOINT RightToe
        {
          OFFSET 0.0000 14.9844 0.0000
          CHANNELS 3 Zrotation Xrotation Yrotation
          End Site
          {
            OFFSET 0.0000 3.5000 0.0000
          }
        }
      }
    }
  }
}
MOTION
Frames: 4
Frame Time: 0.016667
0.0000 96.6554 0.0000 -0.0000 0.0000 0.0000 -0.0000 0.0000 0.0000 -0.0000 0.0000 0.0000 -0.0000 0.0000 0.0000 -90.0000 0.0000 90.0000 -0.0000 0.0000 0.0000 -0.0000 0.0000 0.0000 -0.0000 0.0000 0.0000 0.0001 0.0000 0.0000 -0.0000 0.0000 0.0000 -0.0008 -0.0013 -0.0000 0.0001 -0.0004 0.0000 -0.0000 0.0000 0.0000 -0.0000 0.0000 0.0000 -0.0000 0.0003 0.0000 0.0003 -0.0006 0.0000 -0.0006 0.0004 0.0000 0.0001 0.0000 0.0000 -0.0000 0.0000 0.0000 -0.0002 -0.0010 -0.0000 30.0001 0.0002 -0.0001 -29.9998 0.0005 0.0002 -0.0000 0.0000 0.0000 -0.0000 0.0000 0.0000 -0.0000 0.0000 0.0000 90.0000 0.0001 -90.0000 -0.0000 0.0000 0.0000 -0.0000 0.0000 0.0000 -0.0000 0.0000 0.0000 0.0001 -0.0001 0.0000 -0.0000 0.0000 0.0000 0.0003 -0.0006 0.0000 0.0001 -0.0001 0.0000 -0.0000 0.0000 0.0000 -0.0000 0.0000 0.0000 0.0001 0.0007 -0.0000 0.0001 -0.0012 0.0000 0.0003 -0.0008 0.0000 -0.0000 0.0001 0.0000 -0.0000 0.0000 0.0000 -0.0000 -0.0009 0.0000 -29.9997 0.0002 0.0001 29.9996 -0.0003 0.0001 -0.0000 0.0000 0.0000 179.9999 0.0000 0.0000 0.0826 0.0001 -0.0000 -0.0827 64.6493 0.0000 -0.0000 25.3510 0.0000 180.0000 0.0000 0.0000 -0.0827 0.0000 0.0000 0.0827 64.6493 -0.0000 -0.0001 25.3508 0.0000
7.0420 96.4970 -15.5673 0.0743 0.0864 -5.5194 0.1293 0.1591 1.0228 0.1293 0.1592 1.0229 0.1297 0.1597 1.0259 -90.0000 -14.1693 90.0000 -15.4022 87.9646 26.3210 5.1619 0.1026 -2.1940 -0.3003 0.3007 -0.0128 0.0001 0.0000 0.0000 -0.0000 0.0000 0.0000 -0.0008 -0.0013 -0.0000 0.0001 -0.0004 0.0000 -0.0000 0.0000 0.0000 -0.0000 0.0000 0.0000 -0.0000 0.0002 0.0000 0.0003 -0.0006 0.0000 -0.0006 0.0004 0.0000 0.0001 0.0000 0.0000 -0.0000 0.0000 0.0000 -0.0002 -0.0010 -0.0000 30.0001 0.0002 -0.0001 -29.9998 0.0005 0.0002 -0.0000 0.0000 0.0000 0.4024 3.1697 1.4318 0.4024 3.1697 1.4318 90.0000 -19.6504 -90.0000 44.5014 86.4537 -54.6301 -4.8358 0.8546 4.0111 0.3181 0.2797 0.0134 0.0001 -0.0001 0.0000 -0.0000 0.0000 0.0000 0.0003 -0.0006 0.0000 0.0001 -0.0001 0.0000 -0.0000 0.0000 0.0000 -0.0000 0.0000 0.0000 0.0001 0.0007 -0.0000 0.0001 -0.0012 0.0000 0.0003 -0.0008 0.0000 -0.0000 0.0001 0.0000 -0.0000 0.0000 0.0000 -0.0000 -0.0008 0.0000 -29.9996 0.0002 0.0001 29.9996 -0.0003 0.0001 -0.0000 0.0000 0.0000 -179.9619 -2.7033 -4.0002 0.0828 -2.2453 0.0020 23.4674 67.5711 -25.2238 -0.0000 25.3510 0.0000 -179.4797 -2.1223 -4.7755 -0.0827 -1.4594 -0.0012 -12.2483 68.0073 14.1021 -0.0001 25.3508 0.0000
7.0347 96.4963 -15.5700 0.0779 0.0831 -5.5166 0.1295 0.1602 1.0227 0.1296 0.1603 1.0228 0.1298 0.1609 1.0258 -90.0000 -14.1702 90.0000 -15.2588 87.9650 26.1794 5.1594 0.0992 -2.1923 -0.3003 0.3007 -0.0128 0.0001 0.0000 0.0000 -0.0000 0.0000 0.0000 -0.0008 -0.0013 -0.0000 0.0001 -0.0004 0.0000 -0.0000 0.0000 0.0000 -0.0000 0.0000 0.0000 -0.0000 0.0002 0.0000 0.0003 -0.0006 0.0000 -0.0006 0.0004 0.0000 0.0001 0.0000 0.0000 -0.0000 0.0000 0.0000 -0.0002 -0.0010 -0.0000 30.0001 0.0002 -0.0001 -29.9998 0.0005 0.0002 -0.0000 0.0000 0.0000 0.4014 3.1668 1.4311 0.4014 3.1668 1.4311 90.0000 -19.6456 -90.0000 44.4808 86.4591 -54.6162 -4.8392 0.8582 4.0071 0.3188 0.2803 0.0135 0.0001 -0.0001 0.0000 -0.0000 0.0000 0.0000 0.0003 -0.0006 0.0000 0.0001 -0.0001 0.0000 -0.0000 0.0000 0.0000 -0.0000 0.0000 0.0000 0.0001 0.0007 -0.0000 0.0001 -0.0012 0.0000 0.0003 -0.0008 0.0000 -0.0000 0.0001 0.0000 -0.0000 0.0000 0.0000 -0.0000 -0.0009 0.0000 -29.9997 0.0002 0.0001 29.9996 -0.0003 0.0001 -0.0000 0.0000 0.0000 -179.9602 -2.6906 -3.9978 0.0828 -2.2732 0.0021 23.4753 67.5823 -25.2347 -0.0000 25.3510 0.0000 -179.4615 -1.9622 -4.7836 -0.0827 -1.7795 -0.0014 -12.3523 68.1599 14.2090 -0.0001 25.3508 0.0000
7.0303 96.4914 -15.5693 0.0823 0.0802 -5.5153 0.1299 0.1610 1.0230 0.1299 0.1611 1.0231 0.1303 0.1617 1.0261 -90.0000 -14.1713 90.0000 -15.1068 87.9651 26.0287 5.1564 0.0956 -2.1902 -0.3003 0.3007 -0.0128 0.0001 0.0000 0.0000 -0.0000 0.0000 0.0000 -0.0008 -0.0013 -0.0000 0.0001 -0.0004 0.0000 -0.0000 0.0000 0.0000 -0.0000 0.0000 0.0000 -0.0000 0.0002 0.0000 0.0003 -0.0006 0.0000 -0.0006 0.0004 0.0000 0.0001 0.0000 0.0000 -0.0000 0.0000 0.0000 -0.0002 -0.0010 -0.0000 30.0001 0.0002 -0.0001 -29.9998 0.0005 0.0002 -0.0000 0.0000 0.0000 0.3995 3.1646 1.4313 0.3995 3.1646 1.4313 90.0000 -19.6401 -90.0000 44.4801 86.4657 -54.6234 -4.8436 0.8625 4.0023 0.3188 0.2803 0.0135 0.0001 -0.0001 0.0000 -0.0000 0.0000 0.0000 0.0003 -0.0006 0.0000 0.0001 -0.0001 0.0000 -0.0000 0.0000 0.0000 -0.0000 0.0000 0.0000 0.0001 0.0007 -0.0000 0.0001 -0.0012 0.0000 0.0003 -0.0008 0.0000 -0.0000 0.0001 0.0000 -0.0000 0.0000 0.0000 -0.0000 -0.0009 0.0000 -29.9996 0.0002 0.0001 29.9996 -0.0003 0.0001 -0.0000 0.0000 0.0000 -179.9554 -2.6006 -3.9991 0.0828 -2.4604 0.0022 23.5594 67.6701 -25.3267 -0.0000 25.3510 0.0000 -179.4293 -1.5633 -4.7917 -0.0828 -2.5829 -0.0022 -12.5838 68.5520 14.4586 -0.0001 25.3508 0.0000
